HIERARCHY
ROOT Hips
{
  OFFSET 0 0 0
  CHANNELS 6 Xposition Yposition Zposition Zrotation Xrotation Yrotation
  JOINT LeftHip
  {
    OFFSET 3.43 -2.84217e-014 -1.42109e-014
    CHANNELS 3 Zrotation Xrotation Yrotation
    JOINT LeftKnee
    {
      OFFSET -5.32907e-014 -18.47 -3.62377e-013
      CHANNELS 3 Zrotation Xrotation Yrotation
      JOINT LeftAnkle
      {
        OFFSET 6.39488e-014 -17.95 -1.32161e-012
        CHANNELS 3 Zrotation Xrotation Yrotation
        End Site
        {
          OFFSET 0 -3.12 0
        }
      }
    }
  }
  JOINT RightHip
  {
    OFFSET -3.43 0 -1.42109e-014
    CHANNELS 3 Zrotation Xrotation Yrotation
    JOINT RightKnee
    {
      OFFSET -1.1724e-013 -18.47 -1.77636e-013
      CHANNELS 3 Zrotation Xrotation Yrotation
      JOINT RightAnkle
      {
        OFFSET -1.08713e-012 -17.95 8.95284e-013
        CHANNELS 3 Zrotation Xrotation Yrotation
        End Site
        {
          OFFSET 0 -3.12 0
        }
      }
    }
  }
  JOINT Chest
  {
    OFFSET 9.23706e-014 4.57 4.26326e-014
    CHANNELS 3 Zrotation Xrotation Yrotation
    JOINT Chest2
    {
      OFFSET 3.55271e-014 6.57 1.42109e-014
      CHANNELS 3 Zrotation Xrotation Yrotation
      JOINT LeftCollar
      {
        OFFSET 1.06 4.19 1.76
        CHANNELS 3 Zrotation Xrotation Yrotation
        JOINT LeftShoulder
        {
          OFFSET 5.81 2.13163e-014 2.84217e-014
          CHANNELS 3 Zrotation Xrotation Yrotation
          JOINT LeftElbow
          {
            OFFSET -7.14095e-013 -12.08 -1.50635e-012
            CHANNELS 3 Zrotation Xrotation Yrotation
            JOINT LeftWrist
            {
              OFFSET -2.56719e-011 -9.82 -9.73444e-012
              CHANNELS 3 Zrotation Xrotation Yrotation
              End Site
              {
                OFFSET 0 -7.37 0
              }
            }
          }
        }
      }
      JOINT RightCollar
      {
        OFFSET -1.06 4.19 1.76
        CHANNELS 3 Zrotation Xrotation Yrotation
        JOINT RightShoulder
        {
          OFFSET -6.06 -2.84217e-014 5.68434e-014
          CHANNELS 3 Zrotation Xrotation Yrotation
          JOINT RightElbow
          {
            OFFSET -6.82121e-013 -11.08 -3.97904e-013
            CHANNELS 3 Zrotation Xrotation Yrotation
            JOINT RightWrist
            {
              OFFSET -8.15525e-012 -9.82 7.81597e-013
              CHANNELS 3 Zrotation Xrotation Yrotation
              End Site
              {
                OFFSET 0 -7.14001 0
              }
            }
          }
        }
      }
      JOINT Neck
      {
        OFFSET 2.84217e-014 4.05 2.84217e-014
        CHANNELS 3 Zrotation Xrotation Yrotation
        JOINT Head
        {
          OFFSET 1.84741e-013 5.19 1.98952e-013
          CHANNELS 3 Zrotation Xrotation Yrotation
          End Site
          {
            OFFSET 0 4.14001 0
          }
        }
      }
    }
  }
}
MOTION
Frames:	7
Frame Time:	0.0333333
-7.87516 37.908 -11.1339 -8.88556 8.26589 -121.485 8.34885 6.48128 1.89722 6.87083 59.9198 -9.77734 -5.30118 6.49104 0.300821 5.45771 -8.89798 5.93892 1.92506 37.0375 -16.4299 1.95862 -16.1328 0.277607 2.64023 7.35466 1.36104 3.46084 9.82794 1.60716 2.50658 -0.0769578 3.53512 17.545 -0.072114 -0.683419 -12.0442 -7.01101 -28.2967 3.27617 13.1816 -0.378635 -7.96365 0.351881 -2.56211 -14.4731 5.64631 2.62212 16.7769 -3.46978 16.0447 13.7012 18.9155 -2.29304 0.174631 -11.3375 2.69866 -2.55007 4.46478 3.06341 
-8.96438 38.0161 -12.1861 -8.46299 8.02392 -122.905 7.26786 1.16628 2.09822 5.43717 62.4424 -7.00481 -1.56251 0.32104 0.00437784 6.15595 -6.55218 6.54141 1.4268 36.3304 -15.809 1.73504 -18.164 0.277371 2.62514 7.35135 1.80773 3.53048 9.83009 2.19702 2.39935 -0.0873118 3.84509 18.0901 2.55764 -0.344966 -12.2984 -7.48776 -28.8667 2.20182 12.9013 -0.248975 -8.49562 0.368485 -2.71601 -15.1243 8.48498 3.17848 18.7526 -5.56506 18.5675 15.7312 18.656 -2.59989 -0.174307 -11.4619 2.86635 -2.64406 4.52864 3.1531 
-10.0238 38.1059 -13.1843 -8.03104 7.72909 -124.511 6.24938 -3.89947 2.17655 2.68812 61.7655 -3.83215 0.464752 -4.4372 0.0180052 6.70714 -4.11794 7.08725 0.727895 35.2333 -14.9951 1.53306 -19.88 0.268681 2.56446 7.36725 2.26341 3.52055 9.85189 2.82974 2.29688 -0.0970117 4.11003 18.5527 4.87924 -0.0348565 -12.5341 -7.98599 -29.2883 1.29638 12.6599 -0.143814 -8.99915 0.384998 -2.84664 -15.7367 9.85691 3.67932 20.1511 -7.80804 20.3767 16.3197 17.8046 -2.57326 -0.430622 -11.6138 3.07623 -2.75916 4.58632 3.30969 
-11.063 38.1632 -14.1341 -7.61707 7.40198 -126.257 5.42071 -8.61055 2.11029 -0.099954 59.1577 0.0319309 0.462058 -10.637 0.0430146 7.07317 -1.647 7.54842 -0.120476 33.9295 -14.0387 1.41852 -21.3917 0.267939 2.45962 7.40044 2.71634 3.42766 9.89159 3.48638 2.1974 -0.105667 4.31756 18.8998 6.77451 0.269105 -12.6942 -8.36122 -29.5488 0.585512 12.4928 -0.0640873 -9.42852 0.399441 -2.94383 -16.2677 9.70609 4.10576 20.9183 -9.76631 21.2691 15.9304 16.6179 -2.34132 -0.588037 -11.7587 3.32619 -2.89251 4.60715 3.53115 
-12.0953 38.1741 -15.0454 -7.2401 7.07904 -128.091 4.67885 -12.4077 1.93644 -1.92335 53.3894 3.01676 0.417053 -14.5826 0.0533616 7.2023 0.820005 7.88439 -1.00509 32.5884 -12.8851 1.38121 -22.8258 0.278836 2.3282 7.44342 3.1549 3.25407 9.94149 4.14594 2.10015 -0.112887 4.45769 19.1308 8.11596 0.53719 -12.7707 -8.51893 -29.661 0.144263 12.3913 -0.0156609 -9.75104 0.410091 -3.00044 -16.6934 8.08095 4.48592 21.092 -11.0883 21.383 15.0014 15.2838 -2.02415 -0.644323 -11.8566 3.61029 -3.03928 4.56523 3.80997 
-13.1395 38.1148 -15.9317 -6.92533 6.78597 -129.958 4.10074 -15.283 1.57887 -2.46129 45.0659 4.74316 0.584572 -14.1779 0.0726987 7.00107 3.18958 8.00021 -1.73085 31.4953 -11.4194 1.32595 -24.3962 0.286647 2.1741 7.48498 3.57521 3.00795 9.99001 4.78501 2.0055 -0.118306 4.52387 19.2471 8.85194 0.767972 -12.7426 -8.38785 -29.6395 -0.00822556 12.3532 0.00089018 -9.94873 0.415795 -3.01241 -17.0118 5.18728 4.84754 20.7999 -11.6423 21.0546 13.7065 13.9744 -1.68776 -0.601484 -11.8691 3.91897 -3.19326 4.44252 4.13424 
-14.2158 37.9842 -16.8097 -6.70649 6.53144 -131.801 3.86104 -17.3358 1.02118 -2.049 35.1126 5.43806 -0.431406 -9.16787 -0.0345885 6.33388 5.49562 7.77248 -2.08053 30.6679 -9.54505 1.09007 -26.1869 0.253543 1.98392 7.51764 3.97064 2.70321 10.0281 5.37783 1.91498 -0.121613 4.51381 19.2556 8.98957 0.966097 -12.601 -7.94848 -29.5014 0.108078 12.3753 -0.0117174 -10.0182 0.416159 -2.97899 -17.2264 1.36183 5.19539 20.2042 -11.5157 20.6436 11.9572 12.7869 -1.34466 -0.467305 -11.7685 4.23923 -3.34654 4.23213 4.48841 
